<?xml version="1.0" encoding="utf-8"?>
<!-- Generator: Adobe Illustrator 15.1.0, SVG Export Plug-In . SVG Version: 6.00 Build 0)  -->
<!DOCTYPE svg PUBLIC "-//W3C//DTD SVG 1.0//EN" "http://www.w3.org/TR/2001/REC-SVG-20010904/DTD/svg10.dtd">
<svg version="1.0" id="Layer_1" xmlns="http://www.w3.org/2000/svg" xmlns:xlink="http://www.w3.org/1999/xlink" x="0px" y="0px"
	 width="80.125px" height="80.883px" viewBox="362.75 262.617 80.125 80.883" enable-background="new 362.75 262.617 80.125 80.883"
	 xml:space="preserve">
<path fill="#FFFFFF" d="M440.785,334.453l-22.403-22.402c3.839-5.102,6.118-11.438,6.118-18.301c0-16.818-13.684-30.5-30.5-30.5
	c-16.818,0-30.5,13.682-30.5,30.5c0,16.817,13.682,30.5,30.5,30.5c6.354,0,12.258-1.955,17.148-5.293l22.565,22.566
	c0.977,0.977,2.256,1.465,3.535,1.465s2.56-0.488,3.535-1.465C442.738,339.571,442.738,336.405,440.785,334.453z M373.5,293.75
	c0-11.304,9.196-20.5,20.5-20.5c11.305,0,20.5,9.196,20.5,20.5c0,11.304-9.195,20.5-20.5,20.5
	C382.696,314.25,373.5,305.054,373.5,293.75z"/>
</svg>
