<?xml version="1.0" encoding="utf-8"?>
<!-- Generator: Adobe Illustrator 15.1.0, SVG Export Plug-In . SVG Version: 6.00 Build 0)  -->
<!DOCTYPE svg PUBLIC "-//W3C//DTD SVG 1.1//EN" "http://www.w3.org/Graphics/SVG/1.1/DTD/svg11.dtd">
<svg version="1.1" id="Layer_1" xmlns="http://www.w3.org/2000/svg" xmlns:xlink="http://www.w3.org/1999/xlink" x="0px" y="0px"
	 width="94.333px" height="68.667px" viewBox="0 0 94.333 68.667" enable-background="new 0 0 94.333 68.667" xml:space="preserve">
<g>
	<path fill-rule="evenodd" clip-rule="evenodd" d="M3.246,4H45.92l0.101,62.064H3.246c0,0,0-28.684,0-42.975
		c0.317,0.306,0.51,0.555,0.7,0.8c7.895,10.093,15.602,20.76,23.087,31.481c0.984,1.41,1.812,4.24,4.498,3.197
		c0.363-11.804,0.198-26.122,0.198-38.977c0-1.759-0.198-4.299,0.398-5.096c0.927-1.229,3.897-0.649,5.099-1.3
		c0.865-2.254-1.318-1.897-3.298-1.799c-1.255,0.062-2.673,0.101-3.797,0.101c-1.949,0-6.554-0.782-6.797,0.599
		c-0.28,1.581,1.104,1.363,2.395,1.5c3.18,0.337,3.203,1.162,3.203,4.897c0,9.161,0.206,19.535,0.098,28.583
		c-0.161,0.209-0.59-0.474-0.8-0.799C21.025,35.058,13.074,24.384,4.646,13.996c-0.601-0.742-1.4-1.767-1.4-1.767V4z"/>
	<path fill-rule="evenodd" clip-rule="evenodd" d="M48.817,4c0,0,0,19.892,0,29.687l0.102-0.001c0,0,0-0.001,0-0.002
		c7.984-1.118,13.709-5.233,16.692-11.792c0.771-1.698,2.17-4.777,1.497-6.896c-0.486-1.532-2.278-1.642-4.095-1.999
		c-0.218-0.592-0.144-1.553,0.399-1.698c5.56,0.434,11.604-0.05,16.689,0.199c0.233,0.558,0.167,1.097-0.102,1.598
		c-1.42,0.107-3.17,0.248-4.099,0.999c-0.811,0.659-1.318,2.148-1.796,3.399c-3.301,8.583-9.882,13.994-19.493,16.49
		c10.64,2.298,16.724,8.992,20.191,18.79c0.477,1.357,1.01,2.94,1.997,3.496c1.064,0.603,2.926,0.324,3.899,0.9
		c0.121,0.425,0.121,0.876,0,1.3c-1.074,0.554-2.633,0.169-4.197,0.1c-2.997-0.132-6.023-0.156-9.396,0
		c-1.595,0.074-4.657,0.884-3.896-1.399c1.534-0.564,3.505-0.503,4.098-1.899c0.205-0.49,0.179-1.084,0.097-1.797
		c-0.508-4.504-3.473-8.815-6.396-11.795c-3.182-3.241-7.214-5.523-12.093-5.996c0-0.005-0.102-0.007-0.102-0.007
		c0,10.13,0,30.39,0,30.39h42.879V4H48.817z"/>
</g>
</svg>
