<?xml version="1.0" encoding="utf-8"?>
<!-- Generator: Adobe Illustrator 15.1.0, SVG Export Plug-In . SVG Version: 6.00 Build 0)  -->
<!DOCTYPE svg PUBLIC "-//W3C//DTD SVG 1.0//EN" "http://www.w3.org/TR/2001/REC-SVG-20010904/DTD/svg10.dtd">
<svg version="1.0" id="Layer_1" xmlns="http://www.w3.org/2000/svg" xmlns:xlink="http://www.w3.org/1999/xlink" x="0px" y="0px"
	 width="1190.55px" height="841.89px" viewBox="0 0 1190.55 841.89" enable-background="new 0 0 1190.55 841.89"
	 xml:space="preserve">
<g>
	<path fill-rule="evenodd" clip-rule="evenodd" fill="#FFFFFF" d="M552.079,390.334c14.225,0,28.447,0,42.675,0
		c0.233,20.455,0.033,41.344,0.101,61.964c-14.092,0.167-28.883,0.167-42.976,0c0-14.291,0-28.583,0-42.875
		c0.522-0.173,0.71,0.555,0.9,0.8c7.895,10.093,15.602,20.76,23.087,31.481c0.984,1.41,1.812,4.24,4.498,3.197
		c0.363-11.804,0.198-26.122,0.198-38.977c0-1.759-0.198-4.299,0.398-5.096c0.927-1.229,3.897-0.649,5.099-1.3
		c0.865-2.254-1.318-1.897-3.298-1.799c-1.255,0.062-2.673,0.101-3.797,0.101c-1.949,0-6.554-0.782-6.797,0.599
		c-0.28,1.581,1.104,1.363,2.395,1.5c3.18,0.337,3.203,1.162,3.203,4.897c0,9.161,0.206,19.535,0.098,28.583
		c-0.161,0.209-0.59-0.474-0.8-0.799c-7.205-11.219-15.156-21.893-23.584-32.281c-0.601-0.742-1.479-1.68-1.601-2.198
		c-0.551-2.347,0.414-5.28,0-7.496C551.874,390.463,551.953,390.375,552.079,390.334z"/>
	<path fill-rule="evenodd" clip-rule="evenodd" fill="#FFFFFF" d="M597.752,390.334c14.261,0,28.519,0,42.777,0
		c0,20.688,0,41.377,0,62.064c-14.294,0-28.586,0-42.879,0c0-20.588,0-41.176,0-61.764
		C597.643,390.494,597.637,390.352,597.752,390.334z M611.847,399.33c1.816,0.357,3.608,0.466,4.095,1.999
		c0.673,2.119-0.726,5.198-1.497,6.896c-2.983,6.559-8.708,10.674-16.692,11.792c0,0.667,0,1.333,0,1.999
		c4.879,0.473,8.911,2.755,12.093,5.996c2.923,2.979,5.888,7.291,6.396,11.795c0.082,0.713,0.108,1.307-0.097,1.797
		c-0.593,1.396-2.563,1.335-4.098,1.899c-0.762,2.283,2.301,1.474,3.896,1.399c3.372-0.156,6.398-0.132,9.396,0
		c1.564,0.069,3.123,0.454,4.197-0.1c0.121-0.424,0.121-0.875,0-1.3c-0.974-0.576-2.835-0.298-3.899-0.9
		c-0.987-0.556-1.521-2.139-1.997-3.496c-3.468-9.798-9.552-16.491-20.191-18.79c9.611-2.496,16.192-7.907,19.493-16.49
		c0.478-1.251,0.985-2.741,1.796-3.399c0.929-0.751,2.679-0.892,4.099-0.999c0.269-0.501,0.335-1.04,0.102-1.598
		c-5.085-0.25-11.13,0.234-16.689-0.199C611.703,397.777,611.629,398.737,611.847,399.33z"/>
</g>
</svg>
